<?xml version="1.0" encoding="UTF-8"?>
<svg width="256px" height="256px" viewBox="0 0 256 256" version="1.1" xmlns="http://www.w3.org/2000/svg" xmlns:xlink="http://www.w3.org/1999/xlink">
    <!-- Generator: Sketch 49.3 (51167) - http://www.bohemiancoding.com/sketch -->
    <title>tools</title>
    <desc>Created with Sketch.</desc>
    <defs></defs>
    <g id="tools" stroke="none" stroke-width="1" fill="none" fill-rule="evenodd">
        <g id="bg">
            <circle id="Oval-Copy" fill="#FF5500" cx="128" cy="128" r="128"></circle>
            <path d="M48,227.925935 C18.7372005,204.467999 0,168.422153 0,128 C0,57.307552 57.307552,0 128,0 C165.098612,0 198.510978,15.7826939 221.889017,41 L221.641505,41 C199.94208,24.0800455 172.6482,14 143,14 C72.307552,14 15,71.307552 15,142 C15,175.002098 27.4896112,205.087091 48,227.786146 L48,227.925935 Z" id="Combined-Shape" fill="#802B00"></path>
        </g>
        <path d="M86.28125,184.015625 C84.0937391,186.203135 83,188.820297 83,191.867187 C83,194.914077 84.0937391,197.531238 86.28125,199.71875 C88.4687615,201.906261 91.0859225,203 94.1328125,203 C97.1797025,203 99.796865,201.906261 101.984375,199.71875 L139.015625,162.921875 L123.078125,146.984375 L86.28125,184.015625 Z M178.390625,115.34375 L194.5625,107.140625 L203,90.96875 L195.03125,83 L178.859375,91.4375 L170.65625,107.609375 L150.96875,127.0625 L158.9375,135.03125 L178.390625,115.34375 Z M181.90625,158.234375 C181.90625,158.234375 181.710935,158.195315 181.320305,158.117195 C180.92969,158.03906 180.656255,158 180.5,158 C177.999995,158 175.421885,158.46875 172.765625,159.40625 L126.59375,113.234375 C127.53125,110.578115 128,108.000005 128,105.5 C128,105.343745 127.96094,105.07031 127.882805,104.679695 C127.804685,104.289065 127.765625,104.09375 127.765625,104.09375 C127.45313,98.156225 125.148455,93.156275 120.851555,89.09375 C116.55467,85.031225 111.437525,83 105.5,83 C102.218735,83 99.015635,83.781245 95.890625,85.34375 L110.890625,100.109375 C111.51563,100.890635 112.0625,101.82812 112.53125,102.921875 C113.625005,105.890645 113.078135,108.54686 110.890625,110.890625 C109.32812,112.296875 107.531255,113 105.5,113 C104.71874,113 103.859375,112.843745 102.921875,112.53125 C101.82812,112.0625 100.890635,111.51563 100.109375,110.890625 L85.34375,95.890625 C83.7812421,99.015635 83,102.218735 83,105.5 C83,111.437525 85.0312295,116.55467 89.09375,120.851555 C93.1562705,125.148455 98.156225,127.45313 104.09375,127.765625 C104.09375,127.765625 104.289065,127.804685 104.679695,127.882805 C105.07031,127.96094 105.343745,128 105.5,128 C108.000005,128 110.578115,127.53125 113.234375,126.59375 L159.40625,172.765625 C158.46875,175.421885 158,177.99998 158,180.5 C158,180.656255 158.03906,180.92969 158.117195,181.320305 C158.195315,181.710935 158.234375,181.90625 158.234375,181.90625 C158.54687,187.843775 160.851545,192.843729 165.148445,196.90625 C169.44533,200.968771 174.562475,203 180.5,203 C183.781265,203 186.984365,202.218758 190.109375,200.65625 L175.109375,185.890625 C174.48437,185.109365 173.9375,184.17188 173.46875,183.078125 C172.374995,180.109355 172.921865,177.45314 175.109375,175.109375 C176.67188,173.703125 178.468745,173 180.5,173 C181.28126,173 182.140625,173.156255 183.078125,173.46875 C184.17188,173.9375 185.109365,174.48437 185.890625,175.109375 L200.65625,190.109375 C202.218755,186.984365 203,183.781265 203,180.5 C203,174.562475 200.968775,169.44533 196.90625,165.148445 C192.843725,160.851545 187.843775,158.54687 181.90625,158.234375 Z" id="Page-1" fill="#802B00"></path>
        <path d="M71.28125,169.015625 C69.0937391,171.203135 68,173.820297 68,176.867187 C68,179.914077 69.0937391,182.531238 71.28125,184.71875 C73.4687615,186.906261 76.0859225,188 79.1328125,188 C82.1797025,188 84.796865,186.906261 86.984375,184.71875 L124.015625,147.921875 L108.078125,131.984375 L71.28125,169.015625 Z M163.390625,100.34375 L179.5625,92.140625 L188,75.96875 L180.03125,68 L163.859375,76.4375 L155.65625,92.609375 L135.96875,112.0625 L143.9375,120.03125 L163.390625,100.34375 Z M166.90625,143.234375 C166.90625,143.234375 166.710935,143.195315 166.320305,143.117195 C165.92969,143.03906 165.656255,143 165.5,143 C162.999995,143 160.421885,143.46875 157.765625,144.40625 L111.59375,98.234375 C112.53125,95.578115 113,93.000005 113,90.5 C113,90.343745 112.96094,90.07031 112.882805,89.679695 C112.804685,89.289065 112.765625,89.09375 112.765625,89.09375 C112.45313,83.156225 110.148455,78.156275 105.851555,74.09375 C101.55467,70.031225 96.437525,68 90.5,68 C87.218735,68 84.015635,68.781245 80.890625,70.34375 L95.890625,85.109375 C96.51563,85.890635 97.0625,86.82812 97.53125,87.921875 C98.625005,90.890645 98.078135,93.54686 95.890625,95.890625 C94.32812,97.296875 92.531255,98 90.5,98 C89.71874,98 88.859375,97.843745 87.921875,97.53125 C86.82812,97.0625 85.890635,96.51563 85.109375,95.890625 L70.34375,80.890625 C68.7812421,84.015635 68,87.218735 68,90.5 C68,96.437525 70.0312295,101.55467 74.09375,105.851555 C78.1562705,110.148455 83.156225,112.45313 89.09375,112.765625 C89.09375,112.765625 89.289065,112.804685 89.679695,112.882805 C90.07031,112.96094 90.343745,113 90.5,113 C93.000005,113 95.578115,112.53125 98.234375,111.59375 L144.40625,157.765625 C143.46875,160.421885 143,162.99998 143,165.5 C143,165.656255 143.03906,165.92969 143.117195,166.320305 C143.195315,166.710935 143.234375,166.90625 143.234375,166.90625 C143.54687,172.843775 145.851545,177.843729 150.148445,181.90625 C154.44533,185.968771 159.562475,188 165.5,188 C168.781265,188 171.984365,187.218758 175.109375,185.65625 L160.109375,170.890625 C159.48437,170.109365 158.9375,169.17188 158.46875,168.078125 C157.374995,165.109355 157.921865,162.45314 160.109375,160.109375 C161.67188,158.703125 163.468745,158 165.5,158 C166.28126,158 167.140625,158.156255 168.078125,158.46875 C169.17188,158.9375 170.109365,159.48437 170.890625,160.109375 L185.65625,175.109375 C187.218755,171.984365 188,168.781265 188,165.5 C188,159.562475 185.968775,154.44533 181.90625,150.148445 C177.843725,145.851545 172.843775,143.54687 166.90625,143.234375 Z" id="Page-1" fill="#FFFFFF"></path>
    </g>
</svg>