<?xml version="1.0" encoding="utf-8"?>
<!-- Generator: Adobe Illustrator 26.5.0, SVG Export Plug-In . SVG Version: 6.00 Build 0)  -->
<svg version="1.1" id="Layer_1" xmlns="http://www.w3.org/2000/svg" xmlns:xlink="http://www.w3.org/1999/xlink" x="0px" y="0px"
	 viewBox="0 0 800 800" style="enable-background:new 0 0 800 800;" xml:space="preserve">
<style type="text/css">
	.st0{fill:#ED1C24;}
</style>
<polygon class="st0" points="250,100 249.7,100 250,100.4 "/>
<path d="M400,250l0,150h150C467.2,400,400,332.8,400,250z M400,550V400l-150,0C332.8,400,400,467.2,400,550z M0,0v800h800V0H0z
	 M700,400v300H400V550c0,82.8-67.2,150-150,150c-82.8,0-150-67.2-150-150c0-82.8,67.2-150,150-150l-150,0l0-300l300,0l0,150
	c0-82.8,67.2-150,150-150s150,67.2,150,150s-67.2,150-150,150H700z"/>
</svg>
